<?xml version="1.0" encoding="UTF-8"?>
<svg xmlns="http://www.w3.org/2000/svg" xmlns:xlink="http://www.w3.org/1999/xlink" width="187.882" height="187.882" viewBox="0 0 187.882 187.882">
<path fill="none" stroke-width="0.3985" stroke-linecap="butt" stroke-linejoin="miter" stroke="rgb(50%, 75%, 75%)" stroke-opacity="1" stroke-miterlimit="10" d="M 28.348062 -0.00040625 C 28.348062 15.655844 15.656656 28.34725 0.00040625 28.34725 C -15.655844 28.34725 -28.34725 15.655844 -28.34725 -0.00040625 C -28.34725 -15.656656 -15.655844 -28.348062 0.00040625 -28.348062 C 15.656656 -28.348062 28.348062 -15.656656 28.348062 -0.00040625 Z M 28.348062 -0.00040625 " transform="matrix(1, 0, 0, -1, 93.941, 93.941)"/>
<path fill-rule="nonzero" fill="rgb(0%, 0%, 0%)" fill-opacity="1" d="M 95.351562 93.941406 C 95.351562 93.164062 94.71875 92.53125 93.941406 92.53125 C 93.164062 92.53125 92.53125 93.164062 92.53125 93.941406 C 92.53125 94.71875 93.164062 95.351562 93.941406 95.351562 C 94.71875 95.351562 95.351562 94.71875 95.351562 93.941406 Z M 95.351562 93.941406 "/>
<path fill="none" stroke-width="0.79701" stroke-linecap="butt" stroke-linejoin="miter" stroke="rgb(0%, 100%, 0%)" stroke-opacity="1" stroke-miterlimit="10" d="M 34.016031 -0.00040625 L 15.039469 -0.00040625 " transform="matrix(1, 0, 0, -1, 93.941, 93.941)"/>
<path fill="none" stroke-width="0.6376" stroke-linecap="round" stroke-linejoin="round" stroke="rgb(0%, 100%, 0%)" stroke-opacity="1" stroke-miterlimit="10" d="M -1.555536 2.070719 C -1.422724 1.293375 -0.00084875 0.129312 0.389776 0.00040625 C -0.00084875 -0.1285 -1.422724 -1.296469 -1.555536 -2.073813 " transform="matrix(-1, 0, 0, 1, 108.97962, 93.941)"/>
<path fill="none" stroke-width="0.79701" stroke-linecap="butt" stroke-linejoin="miter" stroke="rgb(0%, 100%, 0%)" stroke-opacity="1" stroke-miterlimit="10" d="M 29.457437 17.007406 L 13.023844 7.519125 " transform="matrix(1, 0, 0, -1, 93.941, 93.941)"/>
<path fill="none" stroke-width="0.6376" stroke-linecap="round" stroke-linejoin="round" stroke="rgb(0%, 100%, 0%)" stroke-opacity="1" stroke-miterlimit="10" d="M -1.555849 2.070973 C -1.42556 1.296605 -0.000899566 0.131287 0.388566 0.00115717 C 0.000840749 -0.131334 -1.423503 -1.293684 -1.552452 -2.071746 " transform="matrix(-0.86601, 0.49998, 0.49998, 0.86601, 106.96483, 86.42191)"/>
<path fill="none" stroke-width="0.79701" stroke-linecap="butt" stroke-linejoin="miter" stroke="rgb(0%, 100%, 0%)" stroke-opacity="1" stroke-miterlimit="10" d="M 17.008219 29.460531 L 7.519937 13.023031 " transform="matrix(1, 0, 0, -1, 93.941, 93.941)"/>
<path fill="none" stroke-width="0.6376" stroke-linecap="round" stroke-linejoin="round" stroke="rgb(0%, 100%, 0%)" stroke-opacity="1" stroke-miterlimit="10" d="M -1.555538 2.070903 C -1.423205 1.294794 -0.000291709 0.127108 0.388864 -0.0000472466 C -0.000602153 -0.130177 -1.425263 -1.295495 -1.553599 -2.073246 " transform="matrix(-0.49998, 0.86601, 0.86601, 0.49998, 101.46009, 80.91717)"/>
<path fill="none" stroke-width="0.79701" stroke-linecap="butt" stroke-linejoin="miter" stroke="rgb(0%, 100%, 0%)" stroke-opacity="1" stroke-miterlimit="10" d="M 0.00040625 34.015219 L 0.00040625 15.038656 " transform="matrix(1, 0, 0, -1, 93.941, 93.941)"/>
<path fill="none" stroke-width="0.6376" stroke-linecap="round" stroke-linejoin="round" stroke="rgb(0%, 100%, 0%)" stroke-opacity="1" stroke-miterlimit="10" d="M -1.554724 2.070719 C -1.425818 1.293375 -0.00003625 0.129312 0.386682 0.00040625 C -0.00003625 -0.1285 -1.425818 -1.296469 -1.554724 -2.073813 " transform="matrix(0, 1, 1, 0, 93.941, 78.90238)"/>
<path fill="none" stroke-width="0.79701" stroke-linecap="butt" stroke-linejoin="miter" stroke="rgb(0%, 100%, 0%)" stroke-opacity="1" stroke-miterlimit="10" d="M -17.007406 29.460531 L -7.519125 13.023031 " transform="matrix(1, 0, 0, -1, 93.941, 93.941)"/>
<path fill="none" stroke-width="0.6376" stroke-linecap="round" stroke-linejoin="round" stroke="rgb(0%, 100%, 0%)" stroke-opacity="1" stroke-miterlimit="10" d="M -1.555146 2.070567 C -1.424857 1.296199 -0.0001959 0.130881 0.38927 0.000750913 C -0.00183859 -0.129787 -1.422799 -1.29409 -1.555131 -2.070199 " transform="matrix(0.49998, 0.86601, 0.86601, -0.49998, 86.42191, 80.91717)"/>
<path fill="none" stroke-width="0.79701" stroke-linecap="butt" stroke-linejoin="miter" stroke="rgb(0%, 100%, 0%)" stroke-opacity="1" stroke-miterlimit="10" d="M -29.460531 17.007406 L -13.023031 7.519125 " transform="matrix(1, 0, 0, -1, 93.941, 93.941)"/>
<path fill="none" stroke-width="0.6376" stroke-linecap="round" stroke-linejoin="round" stroke="rgb(0%, 100%, 0%)" stroke-opacity="1" stroke-miterlimit="10" d="M -1.555131 2.070199 C -1.422799 1.29409 -0.00183859 0.129787 0.38927 -0.000750913 C -0.0001959 -0.130881 -1.424857 -1.296199 -1.555146 -2.070567 " transform="matrix(0.86601, 0.49998, 0.49998, -0.86601, 80.91717, 86.42191)"/>
<path fill="none" stroke-width="0.79701" stroke-linecap="butt" stroke-linejoin="miter" stroke="rgb(0%, 100%, 0%)" stroke-opacity="1" stroke-miterlimit="10" d="M -34.015219 -0.00040625 L -15.038656 -0.00040625 " transform="matrix(1, 0, 0, -1, 93.941, 93.941)"/>
<path fill="none" stroke-width="0.6376" stroke-linecap="round" stroke-linejoin="round" stroke="rgb(0%, 100%, 0%)" stroke-opacity="1" stroke-miterlimit="10" d="M -1.554724 2.073813 C -1.425818 1.296469 -0.00003625 0.1285 0.386682 -0.00040625 C -0.00003625 -0.129312 -1.425818 -1.293375 -1.554724 -2.070719 " transform="matrix(1, 0, 0, -1, 78.90238, 93.941)"/>
<path fill="none" stroke-width="0.79701" stroke-linecap="butt" stroke-linejoin="miter" stroke="rgb(0%, 100%, 0%)" stroke-opacity="1" stroke-miterlimit="10" d="M -29.460531 -17.008219 L -13.023031 -7.519937 " transform="matrix(1, 0, 0, -1, 93.941, 93.941)"/>
<path fill="none" stroke-width="0.6376" stroke-linecap="round" stroke-linejoin="round" stroke="rgb(0%, 100%, 0%)" stroke-opacity="1" stroke-miterlimit="10" d="M -1.553599 2.073246 C -1.425263 1.295495 -0.000602153 0.130177 0.388864 0.0000472466 C -0.000291709 -0.127108 -1.423205 -1.294794 -1.555538 -2.070903 " transform="matrix(0.86601, -0.49998, -0.49998, -0.86601, 80.91717, 101.46009)"/>
<path fill="none" stroke-width="0.79701" stroke-linecap="butt" stroke-linejoin="miter" stroke="rgb(0%, 100%, 0%)" stroke-opacity="1" stroke-miterlimit="10" d="M -17.007406 -29.457437 L -7.519125 -13.023844 " transform="matrix(1, 0, 0, -1, 93.941, 93.941)"/>
<path fill="none" stroke-width="0.6376" stroke-linecap="round" stroke-linejoin="round" stroke="rgb(0%, 100%, 0%)" stroke-opacity="1" stroke-miterlimit="10" d="M -1.552452 2.071746 C -1.423503 1.293684 0.000840749 0.131334 0.388566 -0.00115717 C -0.000899566 -0.131287 -1.42556 -1.296605 -1.555849 -2.070973 " transform="matrix(0.49998, -0.86601, -0.86601, -0.49998, 86.42191, 106.96483)"/>
<path fill="none" stroke-width="0.79701" stroke-linecap="butt" stroke-linejoin="miter" stroke="rgb(0%, 100%, 0%)" stroke-opacity="1" stroke-miterlimit="10" d="M 0.00040625 -34.016031 L 0.00040625 -15.039469 " transform="matrix(1, 0, 0, -1, 93.941, 93.941)"/>
<path fill="none" stroke-width="0.6376" stroke-linecap="round" stroke-linejoin="round" stroke="rgb(0%, 100%, 0%)" stroke-opacity="1" stroke-miterlimit="10" d="M -1.555536 2.073813 C -1.422724 1.296469 -0.00084875 0.1285 0.389776 -0.00040625 C -0.00084875 -0.129312 -1.422724 -1.293375 -1.555536 -2.070719 " transform="matrix(0, -1, -1, 0, 93.941, 108.97962)"/>
<path fill="none" stroke-width="0.79701" stroke-linecap="butt" stroke-linejoin="miter" stroke="rgb(0%, 100%, 0%)" stroke-opacity="1" stroke-miterlimit="10" d="M 17.008219 -29.457437 L 7.519937 -13.023844 " transform="matrix(1, 0, 0, -1, 93.941, 93.941)"/>
<path fill="none" stroke-width="0.6376" stroke-linecap="round" stroke-linejoin="round" stroke="rgb(0%, 100%, 0%)" stroke-opacity="1" stroke-miterlimit="10" d="M -1.554302 2.073653 C -1.425967 1.295901 -0.00130582 0.130584 0.38816 0.000453499 C 0.00238763 -0.128655 -1.423909 -1.294388 -1.552858 -2.072449 " transform="matrix(-0.49998, -0.86601, -0.86601, 0.49998, 101.46009, 106.96483)"/>
<path fill="none" stroke-width="0.79701" stroke-linecap="butt" stroke-linejoin="miter" stroke="rgb(0%, 100%, 0%)" stroke-opacity="1" stroke-miterlimit="10" d="M 29.457437 -17.008219 L 13.023844 -7.519937 " transform="matrix(1, 0, 0, -1, 93.941, 93.941)"/>
<path fill="none" stroke-width="0.6376" stroke-linecap="round" stroke-linejoin="round" stroke="rgb(0%, 100%, 0%)" stroke-opacity="1" stroke-miterlimit="10" d="M -1.552858 2.072449 C -1.423909 1.294388 0.00238763 0.128655 0.38816 -0.000453499 C -0.00130582 -0.130584 -1.425967 -1.295901 -1.554302 -2.073653 " transform="matrix(-0.86601, -0.49998, -0.49998, 0.86601, 106.96483, 101.46009)"/>
<path fill="none" stroke-width="0.79701" stroke-linecap="butt" stroke-linejoin="miter" stroke="rgb(0%, 0%, 0%)" stroke-opacity="1" stroke-miterlimit="10" d="M 51.023844 -0.00040625 L 42.980875 -0.00040625 " transform="matrix(1, 0, 0, -1, 93.941, 93.941)"/>
<path fill="none" stroke-width="0.6376" stroke-linecap="round" stroke-linejoin="round" stroke="rgb(0%, 0%, 0%)" stroke-opacity="1" stroke-miterlimit="10" d="M -1.554542 2.070719 C -1.425636 1.293375 0.000145 0.129312 0.386864 0.00040625 C 0.000145 -0.1285 -1.425636 -1.296469 -1.554542 -2.073813 " transform="matrix(-1, 0, 0, 1, 136.92202, 93.941)"/>
<path fill="none" stroke-width="0.79701" stroke-linecap="butt" stroke-linejoin="miter" stroke="rgb(0%, 0%, 0%)" stroke-opacity="1" stroke-miterlimit="10" d="M 44.187906 25.511313 L 37.223062 21.491781 " transform="matrix(1, 0, 0, -1, 93.941, 93.941)"/>
<path fill="none" stroke-width="0.6376" stroke-linecap="round" stroke-linejoin="round" stroke="rgb(0%, 0%, 0%)" stroke-opacity="1" stroke-miterlimit="10" d="M -1.554908 2.073501 C -1.423189 1.293797 0.00147167 0.128479 0.387555 0.000302226 C 0.00178212 -0.128806 -1.424514 -1.294539 -1.553464 -2.072601 " transform="matrix(-0.86601, 0.49998, 0.49998, 0.86601, 131.1636, 72.4505)"/>
<path fill="none" stroke-width="0.79701" stroke-linecap="butt" stroke-linejoin="miter" stroke="rgb(0%, 0%, 0%)" stroke-opacity="1" stroke-miterlimit="10" d="M 25.512125 44.187094 L 21.488687 37.22225 " transform="matrix(1, 0, 0, -1, 93.941, 93.941)"/>
<path fill="none" stroke-width="0.6376" stroke-linecap="round" stroke-linejoin="round" stroke="rgb(0%, 0%, 0%)" stroke-opacity="1" stroke-miterlimit="10" d="M -1.553166 2.073711 C -1.424217 1.295649 -0.00130348 0.127963 0.387852 0.000807692 C -0.00161392 -0.129322 -1.426275 -1.29464 -1.554611 -2.072391 " transform="matrix(-0.49998, 0.86601, 0.86601, 0.49998, 115.4315, 56.7184)"/>
<path fill="none" stroke-width="0.79701" stroke-linecap="butt" stroke-linejoin="miter" stroke="rgb(0%, 0%, 0%)" stroke-opacity="1" stroke-miterlimit="10" d="M 0.00040625 51.023031 L 0.00040625 42.980063 " transform="matrix(1, 0, 0, -1, 93.941, 93.941)"/>
<path fill="none" stroke-width="0.6376" stroke-linecap="round" stroke-linejoin="round" stroke="rgb(0%, 0%, 0%)" stroke-opacity="1" stroke-miterlimit="10" d="M -1.55373 2.070719 C -1.424824 1.293375 0.0009575 0.129312 0.387676 0.00040625 C 0.0009575 -0.1285 -1.424824 -1.296469 -1.55373 -2.073813 " transform="matrix(0, 1, 1, 0, 93.941, 50.95998)"/>
<path fill="none" stroke-width="0.79701" stroke-linecap="butt" stroke-linejoin="miter" stroke="rgb(0%, 0%, 0%)" stroke-opacity="1" stroke-miterlimit="10" d="M -25.511313 44.187094 L -21.491781 37.22225 " transform="matrix(1, 0, 0, -1, 93.941, 93.941)"/>
<path fill="none" stroke-width="0.6376" stroke-linecap="round" stroke-linejoin="round" stroke="rgb(0%, 0%, 0%)" stroke-opacity="1" stroke-miterlimit="10" d="M -1.554204 2.073095 C -1.425869 1.295344 -0.00120767 0.130026 0.388258 -0.000104026 C -0.000897225 -0.127259 -1.423811 -1.294945 -1.55276 -2.073007 " transform="matrix(0.49998, 0.86601, 0.86601, -0.49998, 72.4505, 56.7184)"/>
<path fill="none" stroke-width="0.79701" stroke-linecap="butt" stroke-linejoin="miter" stroke="rgb(0%, 0%, 0%)" stroke-opacity="1" stroke-miterlimit="10" d="M -44.187094 25.511313 L -37.22225 21.491781 " transform="matrix(1, 0, 0, -1, 93.941, 93.941)"/>
<path fill="none" stroke-width="0.6376" stroke-linecap="round" stroke-linejoin="round" stroke="rgb(0%, 0%, 0%)" stroke-opacity="1" stroke-miterlimit="10" d="M -1.55276 2.073007 C -1.423811 1.294945 -0.000897225 0.127259 0.388258 0.000104026 C -0.00120767 -0.130026 -1.425869 -1.295344 -1.554204 -2.073095 " transform="matrix(0.86601, 0.49998, 0.49998, -0.86601, 56.7184, 72.4505)"/>
<path fill="none" stroke-width="0.79701" stroke-linecap="butt" stroke-linejoin="miter" stroke="rgb(0%, 0%, 0%)" stroke-opacity="1" stroke-miterlimit="10" d="M -51.023031 -0.00040625 L -42.980063 -0.00040625 " transform="matrix(1, 0, 0, -1, 93.941, 93.941)"/>
<path fill="none" stroke-width="0.6376" stroke-linecap="round" stroke-linejoin="round" stroke="rgb(0%, 0%, 0%)" stroke-opacity="1" stroke-miterlimit="10" d="M -1.55373 2.073813 C -1.424824 1.296469 0.0009575 0.1285 0.387676 -0.00040625 C 0.0009575 -0.129312 -1.424824 -1.293375 -1.55373 -2.070719 " transform="matrix(1, 0, 0, -1, 50.95998, 93.941)"/>
<path fill="none" stroke-width="0.79701" stroke-linecap="butt" stroke-linejoin="miter" stroke="rgb(0%, 0%, 0%)" stroke-opacity="1" stroke-miterlimit="10" d="M -44.187094 -25.512125 L -37.22225 -21.488687 " transform="matrix(1, 0, 0, -1, 93.941, 93.941)"/>
<path fill="none" stroke-width="0.6376" stroke-linecap="round" stroke-linejoin="round" stroke="rgb(0%, 0%, 0%)" stroke-opacity="1" stroke-miterlimit="10" d="M -1.554611 2.072391 C -1.426275 1.29464 -0.00161392 0.129322 0.387852 -0.000807692 C -0.00130348 -0.127963 -1.424217 -1.295649 -1.553166 -2.073711 " transform="matrix(0.86601, -0.49998, -0.49998, -0.86601, 56.7184, 115.4315)"/>
<path fill="none" stroke-width="0.79701" stroke-linecap="butt" stroke-linejoin="miter" stroke="rgb(0%, 0%, 0%)" stroke-opacity="1" stroke-miterlimit="10" d="M -25.511313 -44.187906 L -21.491781 -37.223062 " transform="matrix(1, 0, 0, -1, 93.941, 93.941)"/>
<path fill="none" stroke-width="0.6376" stroke-linecap="round" stroke-linejoin="round" stroke="rgb(0%, 0%, 0%)" stroke-opacity="1" stroke-miterlimit="10" d="M -1.553464 2.072601 C -1.424514 1.294539 0.00178212 0.128806 0.387555 -0.000302226 C 0.00147167 -0.128479 -1.423189 -1.293797 -1.554908 -2.073501 " transform="matrix(0.49998, -0.86601, -0.86601, -0.49998, 72.4505, 131.1636)"/>
<path fill="none" stroke-width="0.79701" stroke-linecap="butt" stroke-linejoin="miter" stroke="rgb(0%, 0%, 0%)" stroke-opacity="1" stroke-miterlimit="10" d="M 0.00040625 -51.023844 L 0.00040625 -42.980875 " transform="matrix(1, 0, 0, -1, 93.941, 93.941)"/>
<path fill="none" stroke-width="0.6376" stroke-linecap="round" stroke-linejoin="round" stroke="rgb(0%, 0%, 0%)" stroke-opacity="1" stroke-miterlimit="10" d="M -1.554542 2.073813 C -1.425636 1.296469 0.000145 0.1285 0.386864 -0.00040625 C 0.000145 -0.129312 -1.425636 -1.293375 -1.554542 -2.070719 " transform="matrix(0, -1, -1, 0, 93.941, 136.92202)"/>
<path fill="none" stroke-width="0.79701" stroke-linecap="butt" stroke-linejoin="miter" stroke="rgb(0%, 0%, 0%)" stroke-opacity="1" stroke-miterlimit="10" d="M 25.512125 -44.187906 L 21.488687 -37.223062 " transform="matrix(1, 0, 0, -1, 93.941, 93.941)"/>
<path fill="none" stroke-width="0.6376" stroke-linecap="round" stroke-linejoin="round" stroke="rgb(0%, 0%, 0%)" stroke-opacity="1" stroke-miterlimit="10" d="M -1.555314 2.072798 C -1.423595 1.293093 0.00106542 0.127775 0.387148 -0.00040144 C 0.00137587 -0.12951 -1.424921 -1.295243 -1.55387 -2.073304 " transform="matrix(-0.49998, -0.86601, -0.86601, 0.49998, 115.4315, 131.1636)"/>
<path fill="none" stroke-width="0.79701" stroke-linecap="butt" stroke-linejoin="miter" stroke="rgb(0%, 0%, 0%)" stroke-opacity="1" stroke-miterlimit="10" d="M 44.187906 -25.512125 L 37.223062 -21.488687 " transform="matrix(1, 0, 0, -1, 93.941, 93.941)"/>
<path fill="none" stroke-width="0.6376" stroke-linecap="round" stroke-linejoin="round" stroke="rgb(0%, 0%, 0%)" stroke-opacity="1" stroke-miterlimit="10" d="M -1.55387 2.073304 C -1.424921 1.295243 0.00137587 0.12951 0.387148 0.00040144 C 0.00106542 -0.127775 -1.423595 -1.293093 -1.555314 -2.072798 " transform="matrix(-0.86601, -0.49998, -0.49998, 0.86601, 131.1636, 115.4315)"/>
<path fill="none" stroke-width="0.79701" stroke-linecap="butt" stroke-linejoin="miter" stroke="rgb(0%, 0%, 0%)" stroke-opacity="1" stroke-miterlimit="10" d="M 79.3715 -0.00040625 L 76.461344 -0.00040625 " transform="matrix(1, 0, 0, -1, 93.941, 93.941)"/>
<path fill="none" stroke-width="0.6376" stroke-linecap="round" stroke-linejoin="round" stroke="rgb(0%, 0%, 0%)" stroke-opacity="1" stroke-miterlimit="10" d="M -1.553981 2.070719 C -1.425075 1.293375 0.00070625 0.129312 0.387425 0.00040625 C 0.00070625 -0.1285 -1.425075 -1.296469 -1.553981 -2.073813 " transform="matrix(-1, 0, 0, 1, 170.40305, 93.941)"/>
<path fill="none" stroke-width="0.79701" stroke-linecap="butt" stroke-linejoin="miter" stroke="rgb(0%, 0%, 0%)" stroke-opacity="1" stroke-miterlimit="10" d="M 68.738687 39.683188 L 66.219156 38.230063 " transform="matrix(1, 0, 0, -1, 93.941, 93.941)"/>
<path fill="none" stroke-width="0.6376" stroke-linecap="round" stroke-linejoin="round" stroke="rgb(0%, 0%, 0%)" stroke-opacity="1" stroke-miterlimit="10" d="M -1.556262 2.072156 C -1.422552 1.295846 0.000204971 0.127223 0.386292 -0.000934157 C 0.000528185 -0.130061 -1.425702 -1.295858 -1.554612 -2.073921 " transform="matrix(-0.86604, 0.49994, 0.49994, 0.86604, 160.15923, 55.71003)"/>
<path fill="none" stroke-width="0.79701" stroke-linecap="butt" stroke-linejoin="miter" stroke="rgb(0%, 0%, 0%)" stroke-opacity="1" stroke-miterlimit="10" d="M 39.684 68.737875 L 38.230875 66.218344 " transform="matrix(1, 0, 0, -1, 93.941, 93.941)"/>
<path fill="none" stroke-width="0.6376" stroke-linecap="round" stroke-linejoin="round" stroke="rgb(0%, 0%, 0%)" stroke-opacity="1" stroke-miterlimit="10" d="M -1.552361 2.071648 C -1.423451 1.293585 0.000825652 0.131171 0.388542 -0.00133903 C -0.000927691 -0.131449 -1.425638 -1.296689 -1.555964 -2.071046 " transform="matrix(-0.49994, 0.86604, 0.86604, 0.49994, 132.17197, 27.72277)"/>
<path fill="none" stroke-width="0.79701" stroke-linecap="butt" stroke-linejoin="miter" stroke="rgb(0%, 0%, 0%)" stroke-opacity="1" stroke-miterlimit="10" d="M 0.00040625 79.370688 L 0.00040625 76.460531 " transform="matrix(1, 0, 0, -1, 93.941, 93.941)"/>
<path fill="none" stroke-width="0.6376" stroke-linecap="round" stroke-linejoin="round" stroke="rgb(0%, 0%, 0%)" stroke-opacity="1" stroke-miterlimit="10" d="M -1.553169 2.070719 C -1.424263 1.293375 0.00151875 0.129312 0.388237 0.00040625 C 0.00151875 -0.1285 -1.424263 -1.296469 -1.553169 -2.073813 " transform="matrix(0, 1, 1, 0, 93.941, 17.47895)"/>
<path fill="none" stroke-width="0.79701" stroke-linecap="butt" stroke-linejoin="miter" stroke="rgb(0%, 0%, 0%)" stroke-opacity="1" stroke-miterlimit="10" d="M -39.683188 68.737875 L -38.230063 66.218344 " transform="matrix(1, 0, 0, -1, 93.941, 93.941)"/>
<path fill="none" stroke-width="0.6376" stroke-linecap="round" stroke-linejoin="round" stroke="rgb(0%, 0%, 0%)" stroke-opacity="1" stroke-miterlimit="10" d="M -1.555558 2.07175 C -1.425232 1.297393 -0.00247443 0.12877 0.386996 -0.00134037 C 0.00123187 -0.130467 -1.424998 -1.296264 -1.553908 -2.074327 " transform="matrix(0.49994, 0.86604, 0.86604, -0.49994, 55.71003, 27.72277)"/>
<path fill="none" stroke-width="0.79701" stroke-linecap="butt" stroke-linejoin="miter" stroke="rgb(0%, 0%, 0%)" stroke-opacity="1" stroke-miterlimit="10" d="M -68.737875 39.683188 L -66.218344 38.230063 " transform="matrix(1, 0, 0, -1, 93.941, 93.941)"/>
<path fill="none" stroke-width="0.6376" stroke-linecap="round" stroke-linejoin="round" stroke="rgb(0%, 0%, 0%)" stroke-opacity="1" stroke-miterlimit="10" d="M -1.553908 2.074327 C -1.424998 1.296264 0.00123187 0.130467 0.386996 0.00134037 C -0.00247443 -0.12877 -1.425232 -1.297393 -1.555558 -2.07175 " transform="matrix(0.86604, 0.49994, 0.49994, -0.86604, 27.72277, 55.71003)"/>
<path fill="none" stroke-width="0.79701" stroke-linecap="butt" stroke-linejoin="miter" stroke="rgb(0%, 0%, 0%)" stroke-opacity="1" stroke-miterlimit="10" d="M -79.370688 -0.00040625 L -76.460531 -0.00040625 " transform="matrix(1, 0, 0, -1, 93.941, 93.941)"/>
<path fill="none" stroke-width="0.6376" stroke-linecap="round" stroke-linejoin="round" stroke="rgb(0%, 0%, 0%)" stroke-opacity="1" stroke-miterlimit="10" d="M -1.553169 2.073813 C -1.424263 1.296469 0.00151875 0.1285 0.388237 -0.00040625 C 0.00151875 -0.129312 -1.424263 -1.293375 -1.553169 -2.070719 " transform="matrix(1, 0, 0, -1, 17.47895, 93.941)"/>
<path fill="none" stroke-width="0.79701" stroke-linecap="butt" stroke-linejoin="miter" stroke="rgb(0%, 0%, 0%)" stroke-opacity="1" stroke-miterlimit="10" d="M -68.737875 -39.684 L -66.218344 -38.230875 " transform="matrix(1, 0, 0, -1, 93.941, 93.941)"/>
<path fill="none" stroke-width="0.6376" stroke-linecap="round" stroke-linejoin="round" stroke="rgb(0%, 0%, 0%)" stroke-opacity="1" stroke-miterlimit="10" d="M -1.555964 2.071046 C -1.425638 1.296689 -0.000927691 0.131449 0.388542 0.00133903 C 0.000825652 -0.131171 -1.423451 -1.293585 -1.552361 -2.071648 " transform="matrix(0.86604, -0.49994, -0.49994, -0.86604, 27.72277, 132.17197)"/>
<path fill="none" stroke-width="0.79701" stroke-linecap="butt" stroke-linejoin="miter" stroke="rgb(0%, 0%, 0%)" stroke-opacity="1" stroke-miterlimit="10" d="M -39.683188 -68.738687 L -38.230063 -66.219156 " transform="matrix(1, 0, 0, -1, 93.941, 93.941)"/>
<path fill="none" stroke-width="0.6376" stroke-linecap="round" stroke-linejoin="round" stroke="rgb(0%, 0%, 0%)" stroke-opacity="1" stroke-miterlimit="10" d="M -1.554612 2.073921 C -1.425702 1.295858 0.000528185 0.130061 0.386292 0.000934157 C 0.000204971 -0.127223 -1.422552 -1.295846 -1.556262 -2.072156 " transform="matrix(0.49994, -0.86604, -0.86604, -0.49994, 55.71003, 160.15923)"/>
<path fill="none" stroke-width="0.79701" stroke-linecap="butt" stroke-linejoin="miter" stroke="rgb(0%, 0%, 0%)" stroke-opacity="1" stroke-miterlimit="10" d="M 0.00040625 -79.3715 L 0.00040625 -76.461344 " transform="matrix(1, 0, 0, -1, 93.941, 93.941)"/>
<path fill="none" stroke-width="0.6376" stroke-linecap="round" stroke-linejoin="round" stroke="rgb(0%, 0%, 0%)" stroke-opacity="1" stroke-miterlimit="10" d="M -1.553981 2.073813 C -1.425075 1.296469 0.00070625 0.1285 0.387425 -0.00040625 C 0.00070625 -0.129312 -1.425075 -1.293375 -1.553981 -2.070719 " transform="matrix(0, -1, -1, 0, 93.941, 170.40305)"/>
<path fill="none" stroke-width="0.79701" stroke-linecap="butt" stroke-linejoin="miter" stroke="rgb(0%, 0%, 0%)" stroke-opacity="1" stroke-miterlimit="10" d="M 39.684 -68.738687 L 38.230875 -66.219156 " transform="matrix(1, 0, 0, -1, 93.941, 93.941)"/>
<path fill="none" stroke-width="0.6376" stroke-linecap="round" stroke-linejoin="round" stroke="rgb(0%, 0%, 0%)" stroke-opacity="1" stroke-miterlimit="10" d="M -1.556668 2.071452 C -1.422959 1.295142 0.00175171 0.129902 0.387839 0.00174525 C 0.00012197 -0.130764 -1.424155 -1.293178 -1.553065 -2.071242 " transform="matrix(-0.49994, -0.86604, -0.86604, 0.49994, 132.17197, 160.15923)"/>
<path fill="none" stroke-width="0.79701" stroke-linecap="butt" stroke-linejoin="miter" stroke="rgb(0%, 0%, 0%)" stroke-opacity="1" stroke-miterlimit="10" d="M 68.738687 -39.684 L 66.219156 -38.230875 " transform="matrix(1, 0, 0, -1, 93.941, 93.941)"/>
<path fill="none" stroke-width="0.6376" stroke-linecap="round" stroke-linejoin="round" stroke="rgb(0%, 0%, 0%)" stroke-opacity="1" stroke-miterlimit="10" d="M -1.553065 2.071242 C -1.424155 1.293178 0.00012197 0.130764 0.387839 -0.00174525 C 0.00175171 -0.129902 -1.422959 -1.295142 -1.556668 -2.071452 " transform="matrix(-0.86604, -0.49994, -0.49994, 0.86604, 160.15923, 132.17197)"/>
</svg>
